<svg height="24" viewBox="0 0 24 24" width="24" xmlns="http://www.w3.org/2000/svg"><path d="m8.82929429 20c-.41183641 1.1651924-1.52307546 2-2.82929429 2-1.65685425 0-3-1.3431458-3-3s1.34314575-3 3-3c1.30621883 0 2.41745788.8348076 2.82929429 2h8.67070571c1.3807119 0 2.5-1.1192881 2.5-2.5s-1.1192881-2.5-2.5-2.5h-11c-2.48528137 0-4.5-2.0147186-4.5-4.5 0-2.48528137 2.01471863-4.5 4.5-4.5h3.08578644l-1.29289322-1.29289322 1.41421356-1.41421356 3.70710682 3.70710678-3.70710682 3.70710678-1.41421356-1.41421356 1.29289322-1.29289322h-3.08578644c-1.38071187 0-2.5 1.11928813-2.5 2.5s1.11928813 2.5 2.5 2.5h11c2.4852814 0 4.5 2.0147186 4.5 4.5s-2.0147186 4.5-4.5 4.5zm-2.82929429-2c-.55228475 0-1 .4477153-1 1s.44771525 1 1 1 1-.4477153 1-1-.44771525-1-1-1zm12-16c1.6568542 0 3 1.34314575 3 3s-1.3431458 3-3 3-3-1.34314575-3-3 1.3431458-3 3-3zm0 2c-.5522847 0-1 .44771525-1 1s.4477153 1 1 1 1-.44771525 1-1-.4477153-1-1-1z" fill-rule="evenodd"/></svg>